<?xml version="1.0" standalone="no"?>
<!DOCTYPE svg PUBLIC "-//W3C//DTD SVG 20010904//EN"
 "http://www.w3.org/TR/2001/REC-SVG-20010904/DTD/svg10.dtd">
<svg version="1.0" xmlns="http://www.w3.org/2000/svg"
 width="1024.000000pt" height="1024.000000pt" viewBox="0 0 1024.000000 1024.000000"
 preserveAspectRatio="xMidYMid meet">

<g transform="translate(0.000000,1024.000000) scale(0.100000,-0.100000)"
fill="#000000" stroke="none">
<path d="M4050 6324 c-63 -7 -139 -13 -167 -13 l-53 -1 0 -33 0 -34 72 -13
c55 -10 79 -19 100 -41 l28 -27 0 -711 c0 -562 3 -711 13 -711 6 0 22 -3 34
-6 18 -5 26 2 47 44 14 28 30 53 35 57 6 3 32 -8 59 -25 308 -189 703 -23 787
331 68 289 -81 566 -340 634 -139 36 -295 8 -390 -69 l-45 -37 0 335 0 336
-32 -1 c-18 -1 -85 -7 -148 -15z m552 -661 c106 -48 169 -156 188 -325 23
-200 -24 -378 -122 -462 -125 -107 -339 -78 -411 57 -21 41 -22 50 -22 352 l0
310 49 33 c26 17 69 39 95 47 61 20 163 14 223 -12z"/>
<path d="M5220 6325 c-63 -7 -141 -13 -172 -14 -46 -1 -58 -5 -63 -20 -11 -35
4 -48 75 -60 52 -10 78 -20 100 -41 l30 -28 0 -627 c0 -429 -3 -633 -11 -647
-13 -25 -68 -48 -114 -48 -33 0 -35 -2 -35 -35 l0 -35 260 0 260 0 0 35 c0 33
-2 35 -32 35 -40 0 -115 36 -122 58 -3 9 -7 68 -8 131 l-3 113 51 45 52 44
114 -143 c140 -175 208 -266 219 -295 8 -23 11 -23 203 -23 107 0 197 3 199 8
3 4 2 21 0 38 -5 31 -7 32 -67 36 -71 6 -126 31 -177 81 -55 54 -351 417 -347
426 3 10 201 190 262 239 53 44 103 69 169 86 49 12 52 15 55 48 l3 35 -250 1
-251 2 0 -40 c0 -38 1 -40 33 -40 38 0 96 -28 111 -53 9 -15 0 -29 -64 -90
-41 -39 -124 -119 -185 -177 -60 -59 -114 -109 -120 -112 -7 -4 -9 40 -7 125
2 92 0 127 -8 117 -7 -11 -10 -11 -10 -2 0 7 -5 10 -12 6 -6 -4 -8 -3 -4 4 3
6 2 14 -4 17 -8 5 -7 12 2 23 7 9 8 13 3 10 -9 -5 -13 37 -6 62 5 17 19 -31
17 -58 -1 -20 2 -32 11 -32 10 0 12 85 13 405 l0 405 -27 -1 c-16 -1 -80 -8
-143 -14z m140 -500 c0 -3 -10 -19 -21 -35 -19 -25 -21 -35 -13 -77 5 -26 7
-61 3 -78 -8 -37 -9 -37 -16 57 -4 63 -2 81 13 107 16 27 34 41 34 26z m-27
-293 c-10 -26 7 -62 30 -63 15 0 17 -3 7 -6 -8 -4 -21 -12 -28 -20 -8 -7 -17
-11 -21 -8 -5 2 -7 -8 -5 -23 4 -26 4 -26 -6 3 -6 19 -6 40 0 58 7 20 6 26 -2
21 -7 -5 -9 -2 -5 9 3 9 1 18 -6 21 -7 2 -4 5 6 5 12 1 17 10 18 29 0 23 1 24
8 7 5 -11 6 -26 4 -33z m-46 -99 c-4 -3 -2 -12 4 -20 9 -9 8 -13 0 -13 -6 0
-11 2 -11 4 0 2 -3 11 -6 20 -4 10 -1 16 7 16 7 0 9 -3 6 -7z m79 -16 c16 6
18 -6 4 -27 -6 -10 -10 -11 -10 -2 0 6 -5 12 -11 12 -5 0 -7 -4 -4 -10 3 -5 0
-10 -7 -10 -10 0 -9 -3 2 -9 8 -6 18 -7 22 -5 4 3 8 1 8 -4 0 -14 -26 -33 -33
-25 -13 12 -46 -43 -58 -94 -10 -42 -10 -62 1 -95 7 -24 15 -77 17 -118 7
-107 14 -102 12 8 -1 51 -6 95 -10 98 -13 8 -11 26 3 22 11 -4 18 -26 20 -65
0 -12 9 -30 19 -39 10 -9 16 -21 13 -26 -3 -5 -12 -1 -20 9 -12 17 -13 16 -14
-9 0 -20 4 -26 15 -22 11 5 13 2 9 -10 -3 -9 -10 -16 -14 -16 -5 0 -6 -19 -2
-42 5 -38 3 -41 -10 -30 -13 10 -17 10 -22 -3 -3 -8 -3 -22 0 -30 4 -8 2 -15
-3 -15 -5 0 -15 16 -22 36 -13 35 -13 35 -33 17 -20 -18 -21 -18 -10 3 6 11
18 26 26 34 9 7 16 19 16 26 0 8 5 14 10 14 6 0 10 7 10 16 0 8 -3 13 -7 11
-5 -3 -9 20 -10 51 -1 32 -4 79 -8 105 -5 31 -2 66 6 95 7 26 14 52 15 57 0 6
2 16 2 23 1 6 11 12 22 12 11 0 19 3 19 8 -1 4 -1 20 0 37 1 21 4 26 12 18 6
-6 18 -9 25 -6z m-43 -127 c-9 -11 -19 -17 -21 -15 -6 6 18 35 29 35 5 0 1 -9
-8 -20z m-13 -40 c0 -5 -4 -10 -10 -10 -5 0 -10 5 -10 10 0 6 5 10 10 10 6 0
10 -4 10 -10z m-10 -66 c0 -8 -4 -14 -8 -14 -4 0 -8 9 -8 19 0 11 4 17 8 15 4
-3 8 -12 8 -20z m-40 -294 c0 -5 -8 -10 -17 -10 -15 0 -16 2 -3 10 19 12 20
12 20 0z"/>
<path d="M5316 5463 c-6 -14 -5 -15 5 -6 7 7 10 15 7 18 -3 3 -9 -2 -12 -12z"/>
<path d="M5296 5333 c-6 -14 -5 -15 5 -6 7 7 10 15 7 18 -3 3 -9 -2 -12 -12z"/>
<path d="M2663 5779 c-72 -23 -135 -68 -178 -126 -16 -23 -33 -42 -37 -42 -5
-1 -8 38 -8 85 l0 87 -62 -7 c-35 -3 -116 -9 -180 -12 l-118 -7 0 -32 c0 -30
3 -33 37 -40 66 -12 113 -36 128 -66 12 -23 15 -89 15 -367 0 -327 -1 -340
-21 -365 -19 -25 -64 -44 -119 -49 -20 -2 -26 -9 -28 -35 l-3 -33 265 0 266 0
0 30 c0 32 -3 35 -63 45 -21 3 -52 19 -70 35 l-32 28 0 310 0 309 38 46 c98
120 259 141 357 48 49 -47 60 -89 60 -235 l0 -118 25 4 c13 3 22 1 19 -4 -3
-5 6 -20 21 -34 21 -19 26 -31 21 -50 -8 -30 1 -64 16 -64 30 0 -19 179 -49
180 -7 0 -13 5 -13 11 0 6 6 9 13 6 9 -3 12 14 12 66 0 41 5 77 13 88 19 27
37 13 19 -14 -21 -32 -29 -133 -11 -148 8 -6 12 -14 10 -18 -2 -3 3 -22 12
-41 8 -19 16 -39 16 -44 1 -14 23 -18 31 -6 4 6 0 19 -9 29 -22 25 -20 38 3
17 10 -10 21 -26 24 -37 5 -18 -4 -23 -40 -22 -8 1 -12 -12 -11 -32 1 -23 5
-32 15 -28 9 4 13 -3 13 -22 0 -14 5 -35 10 -46 7 -13 7 -19 0 -19 -5 0 -10
-17 -10 -37 0 -52 -10 -83 -25 -83 -7 0 -18 -7 -25 -15 -8 -9 -8 -15 -2 -15 6
0 12 6 15 13 2 6 8 8 13 4 9 -9 -39 -57 -57 -57 -17 0 -9 27 16 54 14 15 25
32 25 39 0 7 4 6 11 -3 8 -12 9 -10 4 7 -3 12 -1 24 5 28 5 3 10 11 10 16 0 6
-4 8 -9 4 -5 -3 -13 0 -17 6 -3 6 0 15 7 20 8 4 14 24 15 43 0 19 -3 33 -7 30
-4 -2 -10 0 -14 6 -10 16 -19 12 -32 -15 -10 -22 -8 -27 10 -40 12 -8 16 -15
9 -15 -7 0 -10 -4 -7 -10 3 -5 2 -10 -3 -10 -5 0 -14 12 -21 27 -9 19 -15 23
-20 14 -11 -17 -23 13 -14 35 4 11 -1 22 -12 30 -16 12 -16 14 -3 14 9 0 18
-6 21 -12 2 -7 8 1 11 17 4 17 12 38 17 49 12 21 1 35 -43 54 l-28 12 0 -163
c0 -109 -4 -170 -13 -187 -15 -31 -71 -60 -114 -60 -31 0 -33 -2 -33 -35 l0
-35 264 0 c246 0 264 1 261 18 -2 9 -4 25 -4 35 -1 11 -9 17 -26 17 -39 0 -89
25 -113 55 -18 23 -22 41 -22 102 0 45 -4 72 -10 68 -5 -3 -7 -13 -4 -23 5
-15 5 -15 -6 1 -8 13 -8 22 4 39 13 19 16 59 16 234 l0 212 33 44 c52 68 113
100 200 105 93 6 147 -20 192 -92 l30 -48 3 -301 c2 -190 0 -311 -7 -328 -13
-35 -47 -57 -102 -66 -40 -7 -44 -10 -47 -40 l-3 -32 253 0 253 0 0 34 c0 33
-1 34 -46 40 -59 8 -95 36 -109 84 -6 21 -10 159 -10 328 0 324 -5 360 -63
436 -20 27 -55 54 -92 73 -53 27 -68 30 -154 30 -132 0 -201 -26 -292 -112
-36 -35 -69 -63 -72 -63 -2 0 -10 13 -17 30 -20 49 -101 117 -161 134 -70 21
-160 19 -236 -5z m377 -279 c0 -5 -5 -10 -11 -10 -5 0 -7 5 -4 10 3 6 8 10 11
10 2 0 4 -4 4 -10z m20 -340 c0 -5 -4 -10 -10 -10 -5 0 -10 5 -10 10 0 6 5 10
10 10 6 0 10 -4 10 -10z m29 -75 c0 -5 -4 -3 -9 5 -5 8 -9 22 -9 30 0 16 17
-16 18 -35z m-92 -84 c28 -24 31 -31 19 -40 -16 -13 -32 1 -21 19 3 5 0 7 -8
4 -15 -5 -30 10 -33 34 -3 19 8 14 43 -17z m-11 -53 c4 -7 3 -8 -4 -4 -7 4
-13 2 -13 -3 -1 -6 -3 -15 -4 -21 -1 -5 -3 -16 -4 -22 -1 -7 -7 -2 -12 11 -14
35 18 69 37 39z"/>
<path d="M6640 5788 c-127 -9 -254 -64 -303 -131 -93 -125 -36 -267 95 -238
79 18 106 82 77 182 -17 54 5 83 73 104 123 36 248 4 288 -75 23 -44 37 -159
26 -204 -8 -32 -45 -49 -241 -111 -256 -81 -333 -125 -379 -217 -32 -65 -35
-162 -7 -223 84 -181 402 -194 593 -26 l47 42 16 -38 c20 -48 41 -70 90 -96
50 -26 161 -27 218 -3 35 15 37 19 37 60 l0 45 -32 -10 c-51 -14 -75 -11 -105
15 l-28 24 -5 349 c-5 306 -8 353 -24 388 -57 126 -203 181 -436 163z m260
-629 l0 -172 -34 -41 c-120 -147 -371 -135 -400 19 -11 56 11 141 46 181 37
42 70 59 203 109 55 21 116 46 135 56 19 10 38 18 43 19 4 0 7 -77 7 -171z"/>
<path d="M7594 5790 c-151 -32 -242 -129 -252 -270 -6 -85 9 -131 61 -188 52
-55 118 -89 282 -142 227 -74 265 -104 265 -209 0 -69 -26 -113 -85 -141 -120
-58 -287 -23 -376 77 -31 36 -99 166 -99 190 0 9 -14 13 -41 13 l-42 0 7 -77
c3 -42 6 -127 6 -188 l0 -113 27 -7 c21 -5 31 -2 38 10 36 62 33 61 134 26
117 -41 227 -50 324 -27 84 20 117 37 174 89 73 67 88 105 88 224 0 97 -1 103
-30 143 -55 78 -114 108 -340 176 -208 62 -274 134 -230 250 15 39 25 50 69
70 91 42 210 30 288 -29 40 -31 105 -135 120 -193 4 -17 11 -20 37 -16 l31 4
0 93 c0 50 -3 126 -6 168 l-7 77 -30 0 c-22 0 -38 -9 -56 -30 l-26 -30 -65 26
c-71 29 -192 40 -266 24z"/>
<path d="M2995 5469 c-4 -6 -5 -12 -2 -15 2 -3 7 2 10 11 7 17 1 20 -8 4z"/>
<path d="M2970 5121 c-12 -24 -6 -56 9 -47 13 8 20 42 11 56 -6 9 -11 7 -20
-9z"/>
<path d="M6090 4611 c-58 -6 -68 -21 -22 -33 50 -14 52 -24 52 -273 0 -242 -3
-259 -44 -267 -11 -1 -21 -9 -24 -15 -3 -10 22 -13 102 -13 101 0 133 10 84
26 -13 4 -26 12 -30 18 -4 6 -8 136 -8 289 l0 277 -27 -2 c-16 -1 -53 -4 -83
-7z"/>
<path d="M5664 4592 c-6 -4 -16 -17 -23 -30 -10 -19 -10 -28 4 -48 28 -43 105
-24 105 27 0 39 -55 72 -86 51z"/>
<path d="M3305 4528 c-2 -7 -6 -38 -7 -68 -3 -55 -3 -55 -38 -60 -49 -7 -47
-34 3 -38 l37 -3 0 -144 c0 -153 7 -185 46 -205 47 -26 208 9 189 40 -4 6 -29
7 -59 4 -46 -6 -56 -4 -75 15 -19 19 -21 32 -21 156 l0 135 70 0 c63 0 70 2
70 20 0 18 -7 20 -70 20 l-70 0 0 70 0 70 -35 0 c-20 0 -38 -6 -40 -12z"/>
<path d="M5143 4534 c-8 -4 -13 -26 -13 -59 0 -56 -10 -71 -50 -77 -14 -1 -26
-11 -28 -20 -3 -14 4 -18 32 -18 l35 0 3 -156 3 -156 28 -24 c34 -29 100 -32
164 -8 65 25 57 45 -14 38 -93 -9 -96 -5 -97 165 l-1 141 68 0 c60 0 67 2 67
20 0 18 -7 20 -71 20 l-70 0 2 68 c3 65 2 67 -22 69 -13 1 -30 -1 -36 -3z"/>
<path d="M3875 4391 c-99 -45 -144 -173 -96 -276 59 -128 237 -156 345 -54 34
32 38 40 26 49 -11 7 -19 4 -30 -9 -66 -82 -203 -72 -249 18 -12 22 -21 52
-21 66 l0 25 145 0 145 0 0 43 c0 23 -8 58 -18 77 -38 72 -158 102 -247 61z
m144 -35 c13 -13 25 -42 28 -65 l6 -41 -102 0 c-110 0 -111 1 -91 57 26 69
114 97 159 49z"/>
<path d="M5653 4403 c-47 -3 -63 -8 -63 -18 0 -8 9 -15 19 -15 46 0 52 -22 49
-178 l-3 -147 -32 -10 c-59 -17 -35 -25 77 -25 83 0 110 3 110 13 0 7 -10 13
-21 14 -40 3 -44 18 -47 198 -2 128 -6 174 -15 173 -7 -1 -40 -3 -74 -5z"/>
<path d="M6599 4387 c-156 -83 -139 -323 27 -377 58 -19 157 -8 202 24 48 33
69 65 50 77 -8 5 -20 0 -33 -15 -28 -34 -60 -48 -110 -48 -84 -2 -135 40 -150
125 l-7 37 150 0 c138 0 150 1 147 18 -2 9 -4 31 -4 48 -1 41 -39 95 -81 116
-52 25 -137 23 -191 -5z m136 -13 c22 -9 45 -57 45 -94 l0 -30 -101 0 c-112 0
-107 -4 -78 70 17 46 85 73 134 54z"/>
<path d="M4380 4385 c0 -8 6 -15 14 -15 21 0 64 -38 122 -108 l53 -64 -54 -67
c-53 -66 -80 -87 -119 -93 -11 -2 -21 -9 -24 -15 -3 -10 18 -13 82 -13 56 0
86 4 86 11 0 6 -9 13 -20 16 -11 3 -20 9 -20 13 0 17 82 111 93 107 6 -2 29
-28 49 -58 l38 -54 -27 -5 c-14 -3 -28 -11 -31 -17 -3 -10 23 -13 107 -13 92
0 111 3 111 15 0 9 -9 15 -23 15 -13 0 -36 14 -53 33 -48 51 -114 139 -114
151 0 6 25 39 56 73 41 46 64 64 89 69 20 3 35 12 35 20 0 11 -18 14 -80 14
-64 0 -80 -3 -80 -15 0 -8 9 -15 20 -15 28 0 25 -8 -24 -67 l-43 -51 -41 48
c-48 56 -52 70 -17 70 16 0 25 6 25 15 0 12 -18 15 -105 15 -87 0 -105 -3
-105 -15z"/>
<path d="M7007 4382 c-37 -40 -7 -102 49 -102 50 0 73 75 32 104 -30 21 -61
20 -81 -2z m84 -28 c7 -21 6 -31 -7 -45 -24 -26 -34 -24 -33 9 0 24 1 25 9 7
8 -18 9 -17 9 7 1 32 -14 44 -34 28 -10 -9 -11 -18 -4 -37 7 -19 6 -24 -3 -21
-15 5 -22 42 -14 64 3 8 19 14 36 14 24 0 33 -6 41 -26z"/>
</g>
</svg>
